<svg width="393" height="226" viewBox="0 0 393 226" fill="none" xmlns="http://www.w3.org/2000/svg">
<g filter="url(#filter0_b_1_178)">
<rect width="393" height="226" rx="10" fill="white" fill-opacity="0.9"/>
</g>
<line x1="65" y1="87.5" x2="363" y2="87.5" stroke="#F5F4F9"/>
<line x1="65" y1="124.5" x2="363" y2="124.5" stroke="#F5F4F9"/>
<line x1="65" y1="165.5" x2="363" y2="165.5" stroke="#F5F4F9"/>
<path d="M310.838 25L308.088 17.3H309.188L311.421 23.724L313.643 17.3H314.754L311.993 25H310.838ZM315.827 18.499C315.644 18.499 315.49 18.4367 315.365 18.312C315.241 18.1873 315.178 18.037 315.178 17.861C315.178 17.685 315.241 17.5347 315.365 17.41C315.49 17.278 315.644 17.212 315.827 17.212C316.003 17.212 316.154 17.278 316.278 17.41C316.403 17.5347 316.465 17.685 316.465 17.861C316.465 18.037 316.403 18.1873 316.278 18.312C316.154 18.4367 316.003 18.499 315.827 18.499ZM315.343 25V19.5H316.3V25H315.343ZM318.431 22.69C318.527 23.1813 318.75 23.5627 319.102 23.834C319.462 24.1053 319.902 24.241 320.422 24.241C321.148 24.241 321.676 23.9733 322.006 23.438L322.82 23.9C322.285 24.7287 321.478 25.143 320.4 25.143C319.528 25.143 318.816 24.8717 318.266 24.329C317.724 23.779 317.452 23.086 317.452 22.25C317.452 21.4213 317.72 20.732 318.255 20.182C318.791 19.632 319.484 19.357 320.334 19.357C321.141 19.357 321.797 19.643 322.303 20.215C322.817 20.7797 323.073 21.4617 323.073 22.261C323.073 22.4003 323.062 22.5433 323.04 22.69H318.431ZM320.334 20.259C319.821 20.259 319.396 20.4057 319.058 20.699C318.721 20.985 318.512 21.37 318.431 21.854H322.105C322.025 21.3333 321.819 20.9373 321.489 20.666C321.159 20.3947 320.774 20.259 320.334 20.259ZM330.437 19.5H331.438L329.733 25H328.754L327.467 20.93L326.18 25H325.201L323.496 19.5H324.497L325.707 23.68L327.005 19.5H327.929L329.227 23.691L330.437 19.5ZM332.905 20.985C332.905 21.1977 333.011 21.37 333.224 21.502C333.436 21.6267 333.693 21.7293 333.994 21.81C334.294 21.8833 334.595 21.9713 334.896 22.074C335.196 22.1693 335.453 22.338 335.666 22.58C335.878 22.8147 335.985 23.119 335.985 23.493C335.985 23.9917 335.79 24.3913 335.402 24.692C335.02 24.9927 334.529 25.143 333.928 25.143C333.392 25.143 332.934 25.0257 332.553 24.791C332.171 24.5563 331.9 24.2447 331.739 23.856L332.564 23.383C332.652 23.647 332.817 23.856 333.059 24.01C333.301 24.164 333.59 24.241 333.928 24.241C334.243 24.241 334.503 24.1823 334.709 24.065C334.914 23.9403 335.017 23.7497 335.017 23.493C335.017 23.2803 334.91 23.1117 334.698 22.987C334.485 22.855 334.228 22.7523 333.928 22.679C333.627 22.5983 333.326 22.5067 333.026 22.404C332.725 22.3013 332.468 22.1327 332.256 21.898C332.043 21.6633 331.937 21.3627 331.937 20.996C331.937 20.5193 332.12 20.127 332.487 19.819C332.861 19.511 333.326 19.357 333.884 19.357C334.331 19.357 334.727 19.4597 335.072 19.665C335.424 19.863 335.688 20.1417 335.864 20.501L335.061 20.952C334.863 20.4827 334.47 20.248 333.884 20.248C333.612 20.248 333.381 20.314 333.191 20.446C333 20.5707 332.905 20.7503 332.905 20.985Z" fill="#8E9FB9"/>
<g filter="url(#filter1_d_1_178)">
<rect width="75.2179" height="41.9821" rx="8.74627" transform="matrix(-1 8.74228e-08 8.74228e-08 1 190.552 45.0328)" fill="#F4F5F9"/>
<rect width="17.6168" height="17.6168" rx="0.874627" transform="matrix(-0.707107 0.707107 0.707107 0.707107 153.243 74.1957)" fill="#F4F5F9"/>
</g>
<path d="M131.406 54.5576H132.246V61.9045H131.281V55.6072L129.717 56.069L129.475 55.2293L131.406 54.5576ZM135.893 57.0975C136.627 57.0975 137.233 57.3284 137.708 57.7902C138.184 58.245 138.422 58.8363 138.422 59.564C138.422 60.2917 138.184 60.8864 137.708 61.3482C137.233 61.81 136.627 62.0409 135.893 62.0409C135.151 62.0409 134.542 61.81 134.066 61.3482C133.598 60.8864 133.363 60.2917 133.363 59.564C133.363 58.9972 133.51 58.5074 133.804 58.0946L136.166 54.5576H137.278L135.546 57.1185C135.7 57.1045 135.816 57.0975 135.893 57.0975ZM134.759 60.687C135.053 60.9669 135.431 61.1068 135.893 61.1068C136.355 61.1068 136.729 60.9669 137.016 60.687C137.31 60.4001 137.457 60.0258 137.457 59.564C137.457 59.1022 137.31 58.7313 137.016 58.4515C136.729 58.1716 136.355 58.0316 135.893 58.0316C135.424 58.0316 135.046 58.1716 134.759 58.4515C134.472 58.7313 134.329 59.1022 134.329 59.564C134.329 60.0258 134.472 60.4001 134.759 60.687ZM146.966 61.9045L146.368 60.2567H143.062L142.464 61.9045H141.425L144.164 54.5576H145.266L148.005 61.9045H146.966ZM143.398 59.3436H146.032L144.71 55.7226L143.398 59.3436ZM152.347 56.6567H153.261V61.9045H152.347V61.1488C151.977 61.7435 151.41 62.0409 150.647 62.0409C150.031 62.0409 149.538 61.8485 149.167 61.4637C148.796 61.0718 148.611 60.5436 148.611 59.8788V56.6567H149.524V59.8264C149.524 60.2532 149.64 60.5855 149.87 60.8234C150.101 61.0543 150.42 61.1698 150.826 61.1698C151.28 61.1698 151.648 61.0299 151.928 60.75C152.207 60.4631 152.347 60.0258 152.347 59.438V56.6567ZM159.006 56.6567H159.909V61.6841C159.909 62.4607 159.647 63.0625 159.122 63.4893C158.597 63.9231 157.967 64.14 157.233 64.14C156.645 64.14 156.138 64.0281 155.711 63.8042C155.284 63.5873 154.962 63.2724 154.745 62.8596L155.543 62.4083C155.83 62.996 156.4 63.2899 157.254 63.2899C157.799 63.2899 158.226 63.1465 158.534 62.8596C158.849 62.5727 159.006 62.1809 159.006 61.6841V60.9389C158.545 61.6386 157.887 61.9884 157.033 61.9884C156.284 61.9884 155.651 61.7226 155.133 61.1908C154.616 60.659 154.357 60.0118 154.357 59.2491C154.357 58.4864 154.616 57.8427 155.133 57.3179C155.651 56.7862 156.284 56.5203 157.033 56.5203C157.894 56.5203 158.552 56.8666 159.006 57.5593V56.6567ZM155.805 60.582C156.162 60.9389 156.606 61.1173 157.138 61.1173C157.67 61.1173 158.114 60.9389 158.471 60.582C158.828 60.2252 159.006 59.7809 159.006 59.2491C159.006 58.7243 158.828 58.2835 158.471 57.9267C158.114 57.5698 157.67 57.3914 157.138 57.3914C156.606 57.3914 156.162 57.5698 155.805 57.9267C155.448 58.2835 155.27 58.7243 155.27 59.2491C155.27 59.7809 155.448 60.2252 155.805 60.582ZM164.913 56.6567H165.826V61.9045H164.913V61.1488C164.542 61.7435 163.976 62.0409 163.213 62.0409C162.597 62.0409 162.104 61.8485 161.733 61.4637C161.362 61.0718 161.177 60.5436 161.177 59.8788V56.6567H162.09V59.8264C162.09 60.2532 162.205 60.5855 162.436 60.8234C162.667 61.0543 162.986 61.1698 163.391 61.1698C163.846 61.1698 164.214 61.0299 164.494 60.75C164.773 60.4631 164.913 60.0258 164.913 59.438V56.6567ZM167.994 58.0736C167.994 58.2765 168.095 58.441 168.298 58.5669C168.501 58.6859 168.746 58.7838 169.033 58.8608C169.319 58.9307 169.606 59.0147 169.893 59.1127C170.18 59.2036 170.425 59.3646 170.628 59.5955C170.831 59.8194 170.932 60.1097 170.932 60.4666C170.932 60.9424 170.747 61.3237 170.376 61.6106C170.012 61.8975 169.543 62.0409 168.97 62.0409C168.459 62.0409 168.022 61.929 167.658 61.7051C167.294 61.4812 167.035 61.1838 166.881 60.8129L167.668 60.3616C167.752 60.6135 167.91 60.8129 168.14 60.9599C168.371 61.1068 168.648 61.1803 168.97 61.1803C169.27 61.1803 169.519 61.1243 169.715 61.0124C169.911 60.8934 170.009 60.7115 170.009 60.4666C170.009 60.2637 169.907 60.1027 169.704 59.9838C169.501 59.8579 169.256 59.7599 168.97 59.6899C168.683 59.613 168.396 59.5255 168.109 59.4275C167.822 59.3296 167.577 59.1686 167.374 58.9447C167.171 58.7208 167.07 58.434 167.07 58.0841C167.07 57.6293 167.245 57.255 167.595 56.9611C167.952 56.6672 168.396 56.5203 168.928 56.5203C169.354 56.5203 169.732 56.6182 170.061 56.8142C170.397 57.0031 170.649 57.269 170.817 57.6118L170.051 58.0421C169.862 57.5943 169.487 57.3704 168.928 57.3704C168.669 57.3704 168.448 57.4334 168.266 57.5593C168.084 57.6783 167.994 57.8497 167.994 58.0736ZM174.663 57.5383H173.267V60.3826C173.267 60.6415 173.316 60.8269 173.414 60.9389C173.519 61.0438 173.677 61.0998 173.887 61.1068C174.096 61.1068 174.355 61.0998 174.663 61.0858V61.9045C173.866 62.0094 173.281 61.9465 172.91 61.7156C172.54 61.4777 172.354 61.0334 172.354 60.3826V57.5383H171.315V56.6567H172.354V55.4602L173.267 55.1873V56.6567H174.663V57.5383Z" fill="#8E9FB9"/>
<path d="M148.267 73.2711C148.927 73.6367 149.258 74.1819 149.258 74.9067C149.258 75.5224 149.043 76.0099 148.613 76.3691C148.183 76.7218 147.612 76.8982 146.9 76.8982C146.189 76.8982 145.614 76.7218 145.178 76.3691C144.749 76.0099 144.534 75.5224 144.534 74.9067C144.534 74.5603 144.62 74.246 144.793 73.9638C144.967 73.6752 145.21 73.4443 145.525 73.2711C145.018 72.9376 144.765 72.463 144.765 71.8472C144.765 71.2315 144.97 70.7569 145.38 70.4233C145.791 70.0834 146.298 69.9134 146.9 69.9134C147.497 69.9134 148 70.0834 148.411 70.4233C148.828 70.7569 149.036 71.2315 149.036 71.8472C149.036 72.463 148.78 72.9376 148.267 73.2711ZM146.9 70.9621C146.599 70.9621 146.352 71.0423 146.16 71.2026C145.967 71.363 145.871 71.5939 145.871 71.8953C145.871 72.184 145.967 72.4117 146.16 72.5784C146.358 72.7452 146.605 72.8286 146.9 72.8286C147.189 72.8286 147.433 72.7452 147.632 72.5784C147.83 72.4117 147.93 72.184 147.93 71.8953C147.93 71.5939 147.83 71.363 147.632 71.2026C147.439 71.0423 147.196 70.9621 146.9 70.9621ZM146.9 75.8495C147.272 75.8495 147.574 75.7597 147.805 75.5801C148.036 75.3941 148.151 75.1344 148.151 74.8008C148.151 74.4673 148.036 74.2108 147.805 74.0312C147.574 73.8452 147.272 73.7522 146.9 73.7522C146.522 73.7522 146.217 73.8452 145.986 74.0312C145.756 74.2108 145.64 74.4673 145.64 74.8008C145.64 75.1344 145.756 75.3941 145.986 75.5801C146.217 75.7597 146.522 75.8495 146.9 75.8495ZM155.194 74.5315V75.5609H154.425V76.7731H153.309V75.5609H149.999V74.5315L152.318 70.0385H153.52L151.202 74.5315H153.309V72.7805H154.425V74.5315H155.194ZM160.333 75.9457C159.871 76.5807 159.223 76.8982 158.389 76.8982C157.556 76.8982 156.904 76.5807 156.436 75.9457C155.974 75.3108 155.744 74.4641 155.744 73.4058C155.744 72.3475 155.974 71.5009 156.436 70.8659C156.904 70.2309 157.556 69.9134 158.389 69.9134C159.223 69.9134 159.871 70.2309 160.333 70.8659C160.801 71.5009 161.035 72.3475 161.035 73.4058C161.035 74.4641 160.801 75.3108 160.333 75.9457ZM158.389 75.8207C158.89 75.8207 159.271 75.6122 159.534 75.1953C159.797 74.7784 159.929 74.1819 159.929 73.4058C159.929 72.6297 159.797 72.0332 159.534 71.6163C159.271 71.1994 158.89 70.991 158.389 70.991C157.895 70.991 157.514 71.1994 157.244 71.6163C156.981 72.0332 156.85 72.6297 156.85 73.4058C156.85 74.1819 156.981 74.7784 157.244 75.1953C157.514 75.6122 157.895 75.8207 158.389 75.8207Z" fill="#3E3C50"/>
<path d="M73.3785 189.862V196.597H72.4934V191.334L70.2902 195H70.1747L67.9715 191.344V196.597H67.0768V189.862H68.087L70.2324 193.422L72.3683 189.862H73.3785ZM78.792 195.991C78.2982 196.478 77.6985 196.722 76.9929 196.722C76.2874 196.722 75.6877 196.478 75.1938 195.991C74.7064 195.503 74.4626 194.904 74.4626 194.192C74.4626 193.48 74.7064 192.88 75.1938 192.393C75.6877 191.905 76.2874 191.661 76.9929 191.661C77.6985 191.661 78.2982 191.905 78.792 192.393C79.2859 192.88 79.5328 193.48 79.5328 194.192C79.5328 194.904 79.2859 195.503 78.792 195.991ZM76.9929 195.904C77.474 195.904 77.8781 195.741 78.2052 195.414C78.5323 195.087 78.6958 194.679 78.6958 194.192C78.6958 193.704 78.5323 193.297 78.2052 192.97C77.8781 192.643 77.474 192.479 76.9929 192.479C76.5183 192.479 76.1174 192.643 75.7903 192.97C75.4632 193.297 75.2997 193.704 75.2997 194.192C75.2997 194.679 75.4632 195.087 75.7903 195.414C76.1174 195.741 76.5183 195.904 76.9929 195.904ZM82.9152 191.661C83.4796 191.661 83.9318 191.841 84.2717 192.2C84.6117 192.553 84.7816 193.034 84.7816 193.643V196.597H83.9446V193.692C83.9446 193.3 83.8388 192.999 83.6271 192.787C83.4155 192.569 83.1236 192.46 82.7516 192.46C82.3347 192.46 81.998 192.592 81.7414 192.854C81.4849 193.111 81.3566 193.509 81.3566 194.047V196.597H80.5196V191.787H81.3566V192.479C81.6965 191.934 82.2161 191.661 82.9152 191.661Z" fill="#AAB0C0"/>
<path d="M122.908 189.862V190.709H120.916V196.597H120.031V190.709H118.049V189.862H122.908ZM126.255 191.787H127.092V196.597H126.255V195.904C125.915 196.449 125.396 196.722 124.697 196.722C124.132 196.722 123.68 196.546 123.34 196.193C123 195.834 122.83 195.35 122.83 194.74V191.787H123.667V194.692C123.667 195.083 123.773 195.388 123.985 195.606C124.197 195.818 124.488 195.924 124.86 195.924C125.277 195.924 125.614 195.795 125.871 195.539C126.127 195.276 126.255 194.875 126.255 194.336V191.787ZM128.954 194.577C129.037 195.006 129.233 195.34 129.54 195.577C129.855 195.815 130.24 195.933 130.695 195.933C131.33 195.933 131.792 195.699 132.08 195.231L132.792 195.635C132.324 196.36 131.619 196.722 130.676 196.722C129.912 196.722 129.29 196.485 128.809 196.01C128.335 195.529 128.097 194.923 128.097 194.192C128.097 193.467 128.331 192.864 128.8 192.383C129.268 191.902 129.874 191.661 130.618 191.661C131.324 191.661 131.898 191.912 132.34 192.412C132.789 192.906 133.014 193.502 133.014 194.201C133.014 194.323 133.004 194.448 132.985 194.577H128.954ZM130.618 192.45C130.169 192.45 129.797 192.579 129.502 192.835C129.207 193.085 129.024 193.422 128.954 193.845H132.167C132.096 193.39 131.917 193.044 131.628 192.806C131.34 192.569 131.003 192.45 130.618 192.45Z" fill="#AAB0C0"/>
<path d="M167.091 196.597L165.157 189.862H166.1L167.639 195.404L169.275 189.862H170.179L171.815 195.404L173.354 189.862H174.297L172.363 196.597H171.324L169.727 191.219L168.13 196.597H167.091ZM175.186 194.577C175.27 195.006 175.465 195.34 175.773 195.577C176.088 195.815 176.472 195.933 176.928 195.933C177.563 195.933 178.025 195.699 178.313 195.231L179.025 195.635C178.557 196.36 177.851 196.722 176.909 196.722C176.145 196.722 175.523 196.485 175.042 196.01C174.567 195.529 174.33 194.923 174.33 194.192C174.33 193.467 174.564 192.864 175.032 192.383C175.501 191.902 176.107 191.661 176.851 191.661C177.556 191.661 178.13 191.912 178.573 192.412C179.022 192.906 179.246 193.502 179.246 194.201C179.246 194.323 179.237 194.448 179.218 194.577H175.186ZM176.851 192.45C176.402 192.45 176.03 192.579 175.735 192.835C175.44 193.085 175.257 193.422 175.186 193.845H178.4C178.329 193.39 178.15 193.044 177.861 192.806C177.572 192.569 177.236 192.45 176.851 192.45ZM184.182 189.862H185.019V196.597H184.182V195.77C183.765 196.405 183.159 196.722 182.364 196.722C181.69 196.722 181.116 196.478 180.642 195.991C180.167 195.497 179.93 194.897 179.93 194.192C179.93 193.486 180.167 192.89 180.642 192.402C181.116 191.908 181.69 191.661 182.364 191.661C183.159 191.661 183.765 191.979 184.182 192.614V189.862ZM182.47 195.914C182.957 195.914 183.364 195.75 183.692 195.423C184.019 195.09 184.182 194.679 184.182 194.192C184.182 193.704 184.019 193.297 183.692 192.97C183.364 192.636 182.957 192.47 182.47 192.47C181.989 192.47 181.585 192.636 181.257 192.97C180.93 193.297 180.767 193.704 180.767 194.192C180.767 194.679 180.93 195.09 181.257 195.423C181.585 195.75 181.989 195.914 182.47 195.914Z" fill="#AAB0C0"/>
<path d="M222.589 189.862V190.709H220.598V196.597H219.713V190.709H217.731V189.862H222.589ZM225.784 191.661C226.348 191.661 226.8 191.841 227.14 192.2C227.48 192.553 227.65 193.034 227.65 193.643V196.597H226.813V193.692C226.813 193.3 226.707 192.999 226.496 192.787C226.284 192.569 225.992 192.46 225.62 192.46C225.203 192.46 224.867 192.592 224.61 192.854C224.354 193.111 224.225 193.509 224.225 194.047V196.597H223.388V189.862H224.225V192.479C224.565 191.934 225.085 191.661 225.784 191.661ZM232.138 191.787H232.975V196.597H232.138V195.904C231.798 196.449 231.279 196.722 230.579 196.722C230.015 196.722 229.563 196.546 229.223 196.193C228.883 195.834 228.713 195.35 228.713 194.74V191.787H229.55V194.692C229.55 195.083 229.656 195.388 229.867 195.606C230.079 195.818 230.371 195.924 230.743 195.924C231.16 195.924 231.497 195.795 231.753 195.539C232.01 195.276 232.138 194.875 232.138 194.336V191.787Z" fill="#AAB0C0"/>
<path d="M270.317 190.709H267.335V192.893H270.192V193.74H267.335V196.597H266.44V189.862H270.317V190.709ZM272.151 192.595C272.427 191.998 272.927 191.7 273.652 191.7V192.575C273.242 192.556 272.889 192.665 272.594 192.903C272.299 193.14 272.151 193.522 272.151 194.047V196.597H271.314V191.787H272.151V192.595ZM274.894 190.911C274.734 190.911 274.599 190.857 274.49 190.748C274.381 190.638 274.327 190.507 274.327 190.353C274.327 190.199 274.381 190.068 274.49 189.959C274.599 189.843 274.734 189.785 274.894 189.785C275.048 189.785 275.18 189.843 275.289 189.959C275.398 190.068 275.452 190.199 275.452 190.353C275.452 190.507 275.398 190.638 275.289 190.748C275.18 190.857 275.048 190.911 274.894 190.911ZM274.471 196.597V191.787H275.308V196.597H274.471Z" fill="#AAB0C0"/>
<path d="M307.815 196.722C307.186 196.722 306.647 196.575 306.199 196.28C305.756 195.984 305.445 195.58 305.265 195.067L306.035 194.625C306.298 195.439 306.898 195.847 307.834 195.847C308.296 195.847 308.649 195.754 308.892 195.568C309.136 195.375 309.258 195.122 309.258 194.808C309.258 194.487 309.136 194.246 308.892 194.086C308.649 193.926 308.241 193.756 307.671 193.576C307.388 193.486 307.173 193.416 307.026 193.364C306.878 193.307 306.692 193.223 306.468 193.114C306.25 192.999 306.086 192.883 305.977 192.768C305.868 192.646 305.769 192.489 305.679 192.296C305.596 192.104 305.554 191.886 305.554 191.642C305.554 191.059 305.759 190.597 306.17 190.257C306.58 189.91 307.08 189.737 307.671 189.737C308.203 189.737 308.665 189.872 309.056 190.141C309.454 190.411 309.752 190.767 309.951 191.209L309.2 191.642C308.912 190.95 308.402 190.603 307.671 190.603C307.305 190.603 307.01 190.693 306.785 190.873C306.561 191.052 306.449 191.296 306.449 191.604C306.449 191.899 306.554 192.123 306.766 192.277C306.978 192.431 307.343 192.592 307.863 192.758C308.049 192.816 308.18 192.858 308.257 192.883C308.334 192.909 308.453 192.954 308.613 193.018C308.78 193.082 308.902 193.133 308.979 193.172C309.056 193.21 309.159 193.265 309.287 193.336C309.422 193.406 309.521 193.473 309.585 193.538C309.649 193.602 309.723 193.682 309.806 193.778C309.896 193.868 309.96 193.961 309.999 194.057C310.037 194.153 310.069 194.266 310.095 194.394C310.127 194.516 310.143 194.647 310.143 194.788C310.143 195.378 309.928 195.85 309.498 196.203C309.069 196.549 308.508 196.722 307.815 196.722ZM315.212 191.787H316.049V196.597H315.212V195.77C314.795 196.405 314.189 196.722 313.393 196.722C312.72 196.722 312.146 196.478 311.671 195.991C311.197 195.497 310.959 194.897 310.959 194.192C310.959 193.486 311.197 192.89 311.671 192.402C312.146 191.908 312.72 191.661 313.393 191.661C314.189 191.661 314.795 191.979 315.212 192.614V191.787ZM313.499 195.914C313.987 195.914 314.394 195.75 314.721 195.423C315.048 195.09 315.212 194.679 315.212 194.192C315.212 193.704 315.048 193.297 314.721 192.97C314.394 192.636 313.987 192.47 313.499 192.47C313.018 192.47 312.614 192.636 312.287 192.97C311.96 193.297 311.796 193.704 311.796 194.192C311.796 194.679 311.96 195.09 312.287 195.423C312.614 195.75 313.018 195.914 313.499 195.914ZM319.934 192.595H318.654V195.202C318.654 195.439 318.699 195.609 318.789 195.712C318.885 195.808 319.029 195.859 319.222 195.866C319.414 195.866 319.652 195.859 319.934 195.847V196.597C319.203 196.693 318.667 196.635 318.327 196.424C317.987 196.206 317.817 195.798 317.817 195.202V192.595H316.865V191.787H317.817V190.69L318.654 190.44V191.787H319.934V192.595Z" fill="#AAB0C0"/>
<path d="M352.615 196.722C351.987 196.722 351.448 196.575 350.999 196.28C350.557 195.984 350.246 195.58 350.066 195.067L350.836 194.625C351.099 195.439 351.698 195.847 352.635 195.847C353.097 195.847 353.449 195.754 353.693 195.568C353.937 195.375 354.059 195.122 354.059 194.808C354.059 194.487 353.937 194.246 353.693 194.086C353.449 193.926 353.042 193.756 352.471 193.576C352.189 193.486 351.974 193.416 351.827 193.364C351.679 193.307 351.493 193.223 351.269 193.114C351.05 192.999 350.887 192.883 350.778 192.768C350.669 192.646 350.569 192.489 350.48 192.296C350.396 192.104 350.355 191.886 350.355 191.642C350.355 191.059 350.56 190.597 350.97 190.257C351.381 189.91 351.881 189.737 352.471 189.737C353.004 189.737 353.465 189.872 353.857 190.141C354.254 190.411 354.553 190.767 354.751 191.209L354.001 191.642C353.712 190.95 353.202 190.603 352.471 190.603C352.106 190.603 351.811 190.693 351.586 190.873C351.362 191.052 351.249 191.296 351.249 191.604C351.249 191.899 351.355 192.123 351.567 192.277C351.778 192.431 352.144 192.592 352.664 192.758C352.85 192.816 352.981 192.858 353.058 192.883C353.135 192.909 353.254 192.954 353.414 193.018C353.581 193.082 353.703 193.133 353.78 193.172C353.857 193.21 353.959 193.265 354.087 193.336C354.222 193.406 354.322 193.473 354.386 193.538C354.45 193.602 354.524 193.682 354.607 193.778C354.697 193.868 354.761 193.961 354.799 194.057C354.838 194.153 354.87 194.266 354.896 194.394C354.928 194.516 354.944 194.647 354.944 194.788C354.944 195.378 354.729 195.85 354.299 196.203C353.869 196.549 353.308 196.722 352.615 196.722ZM359.236 191.787H360.073V196.597H359.236V195.904C358.896 196.449 358.376 196.722 357.677 196.722C357.113 196.722 356.661 196.546 356.321 196.193C355.981 195.834 355.811 195.35 355.811 194.74V191.787H356.648V194.692C356.648 195.083 356.754 195.388 356.965 195.606C357.177 195.818 357.469 195.924 357.841 195.924C358.258 195.924 358.594 195.795 358.851 195.539C359.108 195.276 359.236 194.875 359.236 194.336V191.787ZM363.743 191.661C364.307 191.661 364.759 191.841 365.099 192.2C365.439 192.553 365.609 193.034 365.609 193.643V196.597H364.772V193.692C364.772 193.3 364.666 192.999 364.455 192.787C364.243 192.569 363.951 192.46 363.579 192.46C363.162 192.46 362.826 192.592 362.569 192.854C362.313 193.111 362.184 193.509 362.184 194.047V196.597H361.347V191.787H362.184V192.479C362.524 191.934 363.044 191.661 363.743 191.661Z" fill="#AAB0C0"/>
<path d="M27.9173 93.3911V92.6599L30.2937 90.2354C30.9287 89.6004 31.2462 89.0552 31.2462 88.5998C31.2462 88.2214 31.1307 87.9264 30.8998 87.7147C30.6689 87.5031 30.3867 87.3972 30.0532 87.3972C29.4182 87.3972 28.9564 87.6987 28.6678 88.3016L27.9173 87.859C28.129 87.4229 28.4208 87.0926 28.7928 86.8681C29.1713 86.6436 29.5882 86.5314 30.0436 86.5314C30.608 86.5314 31.0986 86.7174 31.5156 87.0894C31.9325 87.4614 32.1409 87.9617 32.1409 88.5902C32.1409 89.2701 31.74 90.0109 30.9383 90.8127L29.2162 92.5252H32.266V93.3911H27.9173ZM37.3491 93.3911H36.3101L34.1165 91.1109V93.3911H33.2795V86.6564H34.1165V90.7068L36.1946 88.5806H37.2722L34.9728 90.9089L37.3491 93.3911Z" fill="#AAB0C0"/>
<path d="M23.9612 124.893C24.2883 125.06 24.5449 125.285 24.7309 125.567C24.9169 125.849 25.0099 126.17 25.0099 126.529C25.0099 127.145 24.795 127.629 24.3653 127.982C23.9355 128.328 23.3807 128.501 22.7009 128.501C22.0274 128.501 21.4758 128.328 21.0461 127.982C20.6163 127.629 20.4015 127.145 20.4015 126.529C20.4015 126.17 20.4945 125.849 20.6805 125.567C20.8665 125.285 21.123 125.06 21.4501 124.893C20.8985 124.547 20.6227 124.056 20.6227 123.421C20.6227 122.812 20.8248 122.344 21.2289 122.017C21.6394 121.683 22.13 121.516 22.7009 121.516C23.2781 121.516 23.7688 121.683 24.1729 122.017C24.5834 122.344 24.7886 122.812 24.7886 123.421C24.7886 124.056 24.5128 124.547 23.9612 124.893ZM22.7009 122.373C22.3609 122.373 22.0755 122.462 21.8446 122.642C21.6201 122.822 21.5079 123.088 21.5079 123.441C21.5079 123.781 21.6233 124.047 21.8542 124.239C22.0851 124.425 22.3673 124.518 22.7009 124.518C23.0344 124.518 23.3166 124.425 23.5475 124.239C23.7784 124.047 23.8939 123.781 23.8939 123.441C23.8939 123.088 23.7816 122.822 23.5571 122.642C23.3326 122.462 23.0472 122.373 22.7009 122.373ZM22.7009 127.645C23.1306 127.645 23.4737 127.546 23.7303 127.347C23.9933 127.141 24.1248 126.85 24.1248 126.471C24.1248 126.099 23.9933 125.814 23.7303 125.615C23.4737 125.41 23.1306 125.307 22.7009 125.307C22.2775 125.307 21.9344 125.41 21.6714 125.615C21.4149 125.814 21.2866 126.099 21.2866 126.471C21.2866 126.85 21.4149 127.141 21.6714 127.347C21.9344 127.546 22.2775 127.645 22.7009 127.645ZM30.3176 127.549C29.8622 128.184 29.224 128.501 28.403 128.501C27.5821 128.501 26.9439 128.184 26.4885 127.549C26.0331 126.914 25.8054 126.067 25.8054 125.009C25.8054 123.951 26.0331 123.104 26.4885 122.469C26.9439 121.834 27.5821 121.516 28.403 121.516C29.224 121.516 29.8622 121.834 30.3176 122.469C30.773 123.104 31.0007 123.951 31.0007 125.009C31.0007 126.067 30.773 126.914 30.3176 127.549ZM27.1427 126.943C27.4377 127.398 27.8579 127.626 28.403 127.626C28.9482 127.626 29.3683 127.398 29.6634 126.943C29.9648 126.487 30.1156 125.843 30.1156 125.009C30.1156 124.175 29.9648 123.53 29.6634 123.075C29.3683 122.613 28.9482 122.382 28.403 122.382C27.8579 122.382 27.4377 122.61 27.1427 123.065C26.8477 123.521 26.7001 124.169 26.7001 125.009C26.7001 125.843 26.8477 126.487 27.1427 126.943ZM36.3776 127.549C35.9223 128.184 35.2841 128.501 34.4631 128.501C33.6421 128.501 33.0039 128.184 32.5485 127.549C32.0931 126.914 31.8654 126.067 31.8654 125.009C31.8654 123.951 32.0931 123.104 32.5485 122.469C33.0039 121.834 33.6421 121.516 34.4631 121.516C35.2841 121.516 35.9223 121.834 36.3776 122.469C36.833 123.104 37.0607 123.951 37.0607 125.009C37.0607 126.067 36.833 126.914 36.3776 127.549ZM33.2027 126.943C33.4978 127.398 33.9179 127.626 34.4631 127.626C35.0083 127.626 35.4284 127.398 35.7234 126.943C36.0249 126.487 36.1756 125.843 36.1756 125.009C36.1756 124.175 36.0249 123.53 35.7234 123.075C35.4284 122.613 35.0083 122.382 34.4631 122.382C33.9179 122.382 33.4978 122.61 33.2027 123.065C32.9077 123.521 32.7602 124.169 32.7602 125.009C32.7602 125.843 32.9077 126.487 33.2027 126.943Z" fill="#AAB0C0"/>
<path d="M22.9154 160.128C23.5504 160.128 24.0859 160.317 24.5221 160.695C24.9646 161.067 25.1859 161.584 25.1859 162.244C25.1859 162.899 24.9614 163.415 24.5124 163.793C24.0635 164.172 23.5183 164.361 22.8769 164.361C22.3638 164.361 21.9052 164.239 21.5011 163.995C21.097 163.745 20.8148 163.386 20.6545 162.918L21.4145 162.485C21.5043 162.812 21.6775 163.062 21.934 163.235C22.1906 163.402 22.5049 163.485 22.8769 163.485C23.3002 163.485 23.6434 163.376 23.9063 163.158C24.1693 162.94 24.3008 162.636 24.3008 162.244C24.3008 161.853 24.1693 161.548 23.9063 161.33C23.6434 161.106 23.3066 160.994 22.8961 160.994H20.9912L21.2413 157.501H24.9261V158.338H22.0495L21.934 160.128H22.9154ZM30.3176 163.408C29.8622 164.043 29.224 164.361 28.403 164.361C27.5821 164.361 26.9439 164.043 26.4885 163.408C26.0331 162.773 25.8054 161.927 25.8054 160.869C25.8054 159.81 26.0331 158.964 26.4885 158.329C26.9439 157.694 27.5821 157.376 28.403 157.376C29.224 157.376 29.8622 157.694 30.3176 158.329C30.773 158.964 31.0007 159.81 31.0007 160.869C31.0007 161.927 30.773 162.773 30.3176 163.408ZM27.1427 162.802C27.4377 163.258 27.8579 163.485 28.403 163.485C28.9482 163.485 29.3683 163.258 29.6634 162.802C29.9648 162.347 30.1156 161.702 30.1156 160.869C30.1156 160.035 29.9648 159.39 29.6634 158.935C29.3683 158.473 28.9482 158.242 28.403 158.242C27.8579 158.242 27.4377 158.47 27.1427 158.925C26.8477 159.38 26.7001 160.028 26.7001 160.869C26.7001 161.702 26.8477 162.347 27.1427 162.802ZM36.3776 163.408C35.9223 164.043 35.2841 164.361 34.4631 164.361C33.6421 164.361 33.0039 164.043 32.5485 163.408C32.0931 162.773 31.8654 161.927 31.8654 160.869C31.8654 159.81 32.0931 158.964 32.5485 158.329C33.0039 157.694 33.6421 157.376 34.4631 157.376C35.2841 157.376 35.9223 157.694 36.3776 158.329C36.833 158.964 37.0607 159.81 37.0607 160.869C37.0607 161.927 36.833 162.773 36.3776 163.408ZM33.2027 162.802C33.4978 163.258 33.9179 163.485 34.4631 163.485C35.0083 163.485 35.4284 163.258 35.7234 162.802C36.0249 162.347 36.1756 161.702 36.1756 160.869C36.1756 160.035 36.0249 159.39 35.7234 158.935C35.4284 158.473 35.0083 158.242 34.4631 158.242C33.9179 158.242 33.4978 158.47 33.2027 158.925C32.9077 159.38 32.7602 160.028 32.7602 160.869C32.7602 161.702 32.9077 162.347 33.2027 162.802Z" fill="#AAB0C0"/>
<mask id="mask0_1_178" style="mask-type:alpha" maskUnits="userSpaceOnUse" x="59" y="78" width="304" height="103">
<rect x="59.0001" y="78" width="304" height="103" fill="#C4C4C4"/>
</mask>
<g mask="url(#mask0_1_178)">
<path d="M99.0488 110.341C79.5162 139.156 61.339 139.558 59.0001 139.96V186H363V112.427C359.15 124.463 332.023 128.873 318.896 115.586C286.344 82.6363 259.567 79.4767 249.066 79.0254C238.565 78.574 229.114 83.9904 204.437 107.913C179.76 131.836 148.782 122.357 134.606 102.948C129.193 95.5363 123.564 93.0406 118.645 92.9965C109.419 92.9138 104.226 102.704 99.0488 110.341Z" fill="url(#paint0_linear_1_178)"/>
</g>
<path d="M59.0001 139C61.4331 138.595 81.003 138.19 101.41 106.836C104.797 101.631 108.258 95.7946 114.242 94.1363C120.001 92.5403 127.49 93.748 134.606 103.178C148.782 121.963 179.76 131.137 204.437 107.983C229.114 84.83 238.565 79.5877 249.066 80.0245C259.567 80.4614 286.344 83.5194 318.896 115.41C332.023 128.269 359.15 124.001 363 112.352" stroke="#4360DE" stroke-width="3.49851" stroke-linecap="round"/>
<path d="M361 19L357.5 22.5L354 19" stroke="#8E9FB9"/>
<path d="M28.725 27L28.095 25.11H23.91L23.28 27H21.045L24.72 16.5H27.285L30.975 27H28.725ZM24.57 23.175H27.45L26.01 18.885L24.57 23.175ZM35.2695 27.21C34.1395 27.21 33.1945 26.83 32.4345 26.07C31.6845 25.31 31.3095 24.37 31.3095 23.25C31.3095 22.13 31.6845 21.19 32.4345 20.43C33.1945 19.67 34.1395 19.29 35.2695 19.29C35.9995 19.29 36.6645 19.465 37.2645 19.815C37.8645 20.165 38.3195 20.635 38.6295 21.225L36.9645 22.2C36.8145 21.89 36.5845 21.645 36.2745 21.465C35.9745 21.285 35.6345 21.195 35.2545 21.195C34.6745 21.195 34.1945 21.39 33.8145 21.78C33.4345 22.16 33.2445 22.65 33.2445 23.25C33.2445 23.84 33.4345 24.33 33.8145 24.72C34.1945 25.1 34.6745 25.29 35.2545 25.29C35.6445 25.29 35.9895 25.205 36.2895 25.035C36.5995 24.855 36.8295 24.61 36.9795 24.3L38.6595 25.26C38.3295 25.85 37.8645 26.325 37.2645 26.685C36.6645 27.035 35.9995 27.21 35.2695 27.21ZM43.9729 21.36H42.2779V24.48C42.2779 24.74 42.3429 24.93 42.4729 25.05C42.6029 25.17 42.7929 25.24 43.0429 25.26C43.2929 25.27 43.6029 25.265 43.9729 25.245V27C42.6429 27.15 41.7029 27.025 41.1529 26.625C40.6129 26.225 40.3429 25.51 40.3429 24.48V21.36H39.0379V19.5H40.3429V17.985L42.2779 17.4V19.5H43.9729V21.36ZM46.2971 18.6C45.9771 18.6 45.6971 18.485 45.4571 18.255C45.2271 18.015 45.1121 17.735 45.1121 17.415C45.1121 17.095 45.2271 16.815 45.4571 16.575C45.6971 16.335 45.9771 16.215 46.2971 16.215C46.6271 16.215 46.9071 16.335 47.1371 16.575C47.3771 16.815 47.4971 17.095 47.4971 17.415C47.4971 17.735 47.3771 18.015 47.1371 18.255C46.9071 18.485 46.6271 18.6 46.2971 18.6ZM45.3371 27V19.5H47.2721V27H45.3371ZM53.9782 19.5H56.1082L53.2582 27H51.0532L48.2032 19.5H50.3332L52.1482 24.75L53.9782 19.5ZM58.0013 18.6C57.6813 18.6 57.4013 18.485 57.1613 18.255C56.9313 18.015 56.8163 17.735 56.8163 17.415C56.8163 17.095 56.9313 16.815 57.1613 16.575C57.4013 16.335 57.6813 16.215 58.0013 16.215C58.3313 16.215 58.6113 16.335 58.8413 16.575C59.0813 16.815 59.2013 17.095 59.2013 17.415C59.2013 17.735 59.0813 18.015 58.8413 18.255C58.6113 18.485 58.3313 18.6 58.0013 18.6ZM57.0413 27V19.5H58.9763V27H57.0413ZM65.0373 21.36H63.3423V24.48C63.3423 24.74 63.4073 24.93 63.5373 25.05C63.6673 25.17 63.8573 25.24 64.1073 25.26C64.3573 25.27 64.6673 25.265 65.0373 25.245V27C63.7073 27.15 62.7673 27.025 62.2173 26.625C61.6773 26.225 61.4073 25.51 61.4073 24.48V21.36H60.1023V19.5H61.4073V17.985L63.3423 17.4V19.5H65.0373V21.36ZM71.4527 19.5H73.5227L70.7927 27C70.4027 28.08 69.8827 28.86 69.2327 29.34C68.5927 29.83 67.7927 30.05 66.8327 30V28.2C67.3527 28.21 67.7627 28.1 68.0627 27.87C68.3727 27.64 68.6177 27.27 68.7977 26.76L65.7227 19.5H67.8377L69.7877 24.54L71.4527 19.5Z" fill="#3E3C50"/>
<circle cx="151" cy="122" r="5.5" fill="white" stroke="#4360DE" stroke-width="3"/>
<line x1="151.5" y1="127" x2="151.5" y2="176" stroke="#4360DE" stroke-dasharray="3 5"/>
<defs>
<filter id="filter0_b_1_178" x="-100" y="-100" width="593" height="426" filterUnits="userSpaceOnUse" color-interpolation-filters="sRGB">
<feFlood flood-opacity="0" result="BackgroundImageFix"/>
<feGaussianBlur in="BackgroundImageFix" stdDeviation="50"/>
<feComposite in2="SourceAlpha" operator="in" result="effect1_backgroundBlur_1_178"/>
<feBlend mode="normal" in="SourceGraphic" in2="effect1_backgroundBlur_1_178" result="shape"/>
</filter>
<filter id="filter1_d_1_178" x="111.836" y="45.0328" width="82.2149" height="60.7115" filterUnits="userSpaceOnUse" color-interpolation-filters="sRGB">
<feFlood flood-opacity="0" result="BackgroundImageFix"/>
<feColorMatrix in="SourceAlpha" type="matrix" values="0 0 0 0 0 0 0 0 0 0 0 0 0 0 0 0 0 0 127 0" result="hardAlpha"/>
<feOffset dy="3.49851"/>
<feGaussianBlur stdDeviation="1.74925"/>
<feColorMatrix type="matrix" values="0 0 0 0 0.152941 0 0 0 0 0.156863 0 0 0 0 0.282353 0 0 0 0.1 0"/>
<feBlend mode="normal" in2="BackgroundImageFix" result="effect1_dropShadow_1_178"/>
<feBlend mode="normal" in="SourceGraphic" in2="effect1_dropShadow_1_178" result="shape"/>
</filter>
<linearGradient id="paint0_linear_1_178" x1="211" y1="79" x2="211" y2="186" gradientUnits="userSpaceOnUse">
<stop stop-color="#AFC8FA" stop-opacity="0.2"/>
<stop offset="1" stop-color="#AFC8FA" stop-opacity="0"/>
</linearGradient>
</defs>
</svg>
